<svg width="187" height="187" xmlns="http://www.w3.org/2000/svg" xmlns:xlink="http://www.w3.org/1999/xlink" xml:space="preserve" overflow="hidden"><g transform="translate(-471 -341)"><path d="M509.958 504.625C505.673 504.625 502.004 503.099 498.953 500.047 495.901 496.996 494.375 493.327 494.375 489.042L494.375 379.958C494.375 375.673 495.901 372.004 498.953 368.953 502.004 365.901 505.673 364.375 509.958 364.375L579.499 364.375 563.916 379.958 509.958 379.958 509.958 489.042 619.042 489.042 619.042 434.89 634.625 419.306 634.625 489.042C634.625 493.327 633.099 496.996 630.047 500.047 626.996 503.099 623.327 504.625 619.042 504.625L509.958 504.625ZM541.125 457.875 541.125 424.76 612.614 353.272C614.172 351.714 615.925 350.545 617.873 349.766 619.821 348.986 621.769 348.597 623.717 348.597 625.794 348.597 627.775 348.986 629.658 349.766 631.541 350.545 633.261 351.714 634.82 353.272L645.728 364.375C647.156 365.933 648.26 367.654 649.04 369.537 649.819 371.42 650.208 373.335 650.208 375.283 650.208 377.231 649.851 379.147 649.137 381.03 648.423 382.913 647.286 384.633 645.728 386.192L574.24 457.875 541.125 457.875ZM634.82 375.283 623.911 364.375 634.82 375.283ZM556.708 442.292 567.617 442.292 612.808 397.1 607.354 391.646 601.705 386.192 556.708 431.189 556.708 442.292ZM607.354 391.646 601.705 386.192 607.354 391.646 612.808 397.1 607.354 391.646Z" fill="#2A7BC4"/></g></svg>