<svg width="187" height="187" xmlns="http://www.w3.org/2000/svg" xmlns:xlink="http://www.w3.org/1999/xlink" xml:space="preserve" overflow="hidden"><g transform="translate(-658 -347)"><path d="M696.958 510.625C692.673 510.625 689.004 509.099 685.953 506.047 682.901 502.996 681.375 499.327 681.375 495.042L681.375 385.958C681.375 381.673 682.901 378.004 685.953 374.953 689.004 371.901 692.673 370.375 696.958 370.375L766.499 370.375 750.916 385.958 696.958 385.958 696.958 495.042 806.042 495.042 806.042 440.89 821.625 425.306 821.625 495.042C821.625 499.327 820.099 502.996 817.047 506.047 813.996 509.099 810.327 510.625 806.042 510.625L696.958 510.625ZM728.125 463.875 728.125 430.76 799.614 359.272C801.172 357.714 802.925 356.545 804.873 355.766 806.821 354.986 808.769 354.597 810.717 354.597 812.794 354.597 814.775 354.986 816.658 355.766 818.541 356.545 820.261 357.714 821.82 359.272L832.728 370.375C834.156 371.933 835.26 373.654 836.04 375.537 836.819 377.42 837.208 379.335 837.208 381.283 837.208 383.231 836.851 385.147 836.137 387.03 835.423 388.913 834.286 390.633 832.728 392.192L761.24 463.875 728.125 463.875ZM821.82 381.283 810.911 370.375 821.82 381.283ZM743.708 448.292 754.617 448.292 799.808 403.1 794.354 397.646 788.705 392.192 743.708 437.189 743.708 448.292ZM794.354 397.646 788.705 392.192 794.354 397.646 799.808 403.1 794.354 397.646Z" fill="#E94949"/></g></svg>