<svg width="176" height="175" xmlns="http://www.w3.org/2000/svg" xmlns:xlink="http://www.w3.org/1999/xlink" xml:space="preserve" overflow="hidden"><g transform="translate(-857 -353)"><path d="M102.083-65.625C104.149-65.625 105.942-66.3846 107.461-67.9036 108.98-69.4227 109.74-71.2153 109.74-73.2812 109.74-75.3472 108.98-77.1398 107.461-78.6589 105.942-80.1779 104.149-80.9375 102.083-80.9375 100.017-80.9375 98.2248-80.1779 96.7057-78.6589 95.1867-77.1398 94.4271-75.3472 94.4271-73.2812 94.4271-71.2153 95.1867-69.4227 96.7057-67.9036 98.2248-66.3846 100.017-65.625 102.083-65.625ZM96.6146-88.9583 107.552-88.9583C107.552-92.4826 107.917-95.0651 108.646-96.7057 109.375-98.3464 111.076-100.503 113.75-103.177 117.396-106.823 119.826-109.77 121.042-112.018 122.257-114.266 122.865-116.91 122.865-119.948 122.865-125.417 120.951-129.883 117.122-133.346 113.294-136.81 108.281-138.542 102.083-138.542 97.1008-138.542 92.756-137.144 89.0495-134.349 85.3429-131.554 82.7604-127.847 81.3021-123.229L91.1458-119.219C92.2396-122.257 93.7284-124.536 95.612-126.055 97.4956-127.574 99.6528-128.333 102.083-128.333 105-128.333 107.37-127.513 109.193-125.872 111.016-124.232 111.927-122.014 111.927-119.219 111.927-117.517 111.441-115.907 110.469-114.388 109.497-112.869 107.795-110.955 105.365-108.646 101.354-105.122 98.8932-102.357 97.9818-100.352 97.0703-98.3464 96.6146-94.5487 96.6146-88.9583ZM58.3333-43.75C54.3229-43.75 50.8898-45.1779 48.0339-48.0339 45.1779-50.8898 43.75-54.3229 43.75-58.3333L43.75-145.833C43.75-149.844 45.1779-153.277 48.0339-156.133 50.8898-158.989 54.3229-160.417 58.3333-160.417L145.833-160.417C149.844-160.417 153.277-158.989 156.133-156.133 158.989-153.277 160.417-149.844 160.417-145.833L160.417-58.3333C160.417-54.3229 158.989-50.8898 156.133-48.0339 153.277-45.1779 149.844-43.75 145.833-43.75L58.3333-43.75ZM58.3333-58.3333 145.833-58.3333 145.833-145.833 58.3333-145.833 58.3333-58.3333ZM29.1667-14.5833C25.1562-14.5833 21.7232-16.0113 18.8672-18.8672 16.0113-21.7232 14.5833-25.1562 14.5833-29.1667L14.5833-131.25 29.1667-131.25 29.1667-29.1667 131.25-29.1667 131.25-14.5833 29.1667-14.5833ZM58.3333-145.833 58.3333-58.3333 58.3333-145.833Z" fill="#E94949" transform="matrix(1.00571 0 0 1 857 528)"/></g></svg>